<svg width="245" height="36" viewBox="0 0 245 36" fill="none" xmlns="http://www.w3.org/2000/svg">
<path d="M14.9522 8.68906H21.7386V10.2339H19.2282V28.331H17.435L6.20709 13.1857L4.99326 11.0615H4.88291L5.15878 13.2133V26.4551H7.6692V28H0.882786V26.4551H3.39321V10.2339H0.882786V8.68906H6.4002L16.0557 21.6826L17.4902 24.0551H17.6281L17.4626 21.6826V10.2339H14.9522V8.68906ZM31.182 28H24.4232V26.4551H26.575L33.72 8.68906H36.6442L43.1824 26.4551H45.2514V28H37.3615V26.4551H39.8168L38.0236 21.5998H30.6854L28.8095 26.4551H31.182V28ZM31.3199 20.0549H37.5546L35.2925 13.6823L34.6028 10.7581H34.4924L33.6924 13.7375L31.3199 20.0549ZM50.5173 25.2965L51.0139 25.9586C51.3449 26.1976 51.7955 26.4 52.3656 26.5655C52.9542 26.7126 53.5979 26.7862 54.2967 26.7862C54.9588 26.7862 55.5657 26.7218 56.1175 26.5931C56.6876 26.4459 57.1842 26.2344 57.6072 25.9586C58.0302 25.6827 58.3612 25.3333 58.6003 24.9102C58.8394 24.4872 58.9589 23.9815 58.9589 23.393C58.9589 22.6389 58.7015 22.0136 58.1865 21.517C57.6899 21.0205 57.0646 20.5791 56.3106 20.1929C55.5565 19.8066 54.7381 19.4296 53.8553 19.0618C52.9725 18.694 52.1541 18.2618 51.4001 17.7652C50.646 17.2686 50.0115 16.6709 49.4966 15.972C49 15.2732 48.7517 14.3904 48.7517 13.3237C48.7517 11.7604 49.3403 10.5466 50.5173 9.68219C51.7127 8.79941 53.322 8.35801 55.345 8.35801C56.614 8.35801 57.7083 8.44077 58.6279 8.6063C59.5475 8.77182 60.3291 8.99251 60.9728 9.26839V14.0134H59.2072V11.034L58.7658 10.3443C58.4164 10.1971 57.9106 10.0868 57.2485 10.0132C56.5865 9.93967 55.9336 9.90289 55.2899 9.90289C54.1864 9.90289 53.322 10.1604 52.6967 10.6753C52.0714 11.1719 51.7587 11.88 51.7587 12.7995C51.7587 13.5536 52.007 14.1881 52.5036 14.703C53.0185 15.1996 53.653 15.6502 54.4071 16.0548C55.1611 16.4594 55.9795 16.8548 56.8623 17.241C57.7451 17.6089 58.5635 18.0411 59.3176 18.5376C60.0716 19.0158 60.6969 19.5951 61.1935 20.2756C61.7084 20.9561 61.9659 21.8021 61.9659 22.8136C61.9659 24.5976 61.2763 25.9678 59.8969 26.9241C58.5175 27.8621 56.6324 28.331 54.2416 28.331C52.9358 28.331 51.8047 28.1931 50.8483 27.9172C49.892 27.6414 49.1931 27.3471 48.7517 27.0345V22.0136H50.5173V25.2965ZM72.027 28H65.2682V26.4551H67.42L74.565 8.68906H77.4893L84.0274 26.4551H86.0964V28H78.2065V26.4551H80.6618L78.8686 21.5998H71.5305L69.6545 26.4551H72.027V28ZM72.165 20.0549H78.3996L76.1375 13.6823L75.4478 10.7581H75.3375L74.5374 13.7375L72.165 20.0549ZM94.3693 26.4551H96.7418V28H88.7691V26.4551H91.2796V10.2339H88.7691V8.68906H91.5554C92.383 8.68906 93.2842 8.65227 94.259 8.57871C95.2337 8.50514 96.1901 8.46836 97.128 8.46836C98.1395 8.46836 99.0867 8.57871 99.9695 8.7994C100.871 9.00171 101.643 9.32356 102.287 9.76495C102.93 10.2063 103.436 10.7765 103.804 11.4753C104.19 12.1558 104.383 12.9742 104.383 13.9306C104.383 15.2548 103.97 16.3858 103.142 17.3238C102.333 18.2434 101.266 18.8963 99.9419 19.2825L105.432 26.4551H107.142V28H102.673L97.1832 19.6687H94.3693V26.4551ZM96.5487 18.2342C97.9648 18.2342 99.0683 17.848 99.8591 17.0755C100.668 16.3031 101.073 15.2548 101.073 13.9306C101.073 12.5696 100.65 11.5765 99.804 10.9512C98.958 10.3259 97.8361 10.0132 96.4383 10.0132C95.9602 10.0132 95.5555 10.0316 95.2245 10.0684C94.9119 10.1052 94.6268 10.142 94.3693 10.1788V18.2342H96.5487ZM115.97 28H109.211V26.4551H111.363L118.508 8.68906H121.432L127.971 26.4551H130.04V28H122.15V26.4551H124.605L122.812 21.5998H115.474L113.598 26.4551H115.97V28ZM116.108 20.0549H122.343L120.081 13.6823L119.391 10.7581H119.281L118.481 13.7375L116.108 20.0549ZM144.669 25.2965L145.165 25.9586C145.497 26.1976 145.947 26.4 146.517 26.5655C147.106 26.7126 147.749 26.7862 148.448 26.7862C149.11 26.7862 149.717 26.7218 150.269 26.5931C150.839 26.4459 151.336 26.2344 151.759 25.9586C152.182 25.6827 152.513 25.3333 152.752 24.9102C152.991 24.4872 153.111 23.9815 153.111 23.393C153.111 22.6389 152.853 22.0136 152.338 21.517C151.842 21.0205 151.216 20.5791 150.462 20.1929C149.708 19.8066 148.89 19.4296 148.007 19.0618C147.124 18.694 146.306 18.2618 145.552 17.7652C144.798 17.2686 144.163 16.6709 143.648 15.972C143.152 15.2732 142.903 14.3904 142.903 13.3237C142.903 11.7604 143.492 10.5466 144.669 9.68219C145.864 8.79941 147.474 8.35801 149.497 8.35801C150.766 8.35801 151.86 8.44077 152.78 8.6063C153.699 8.77182 154.481 8.99251 155.124 9.26839V14.0134H153.359V11.034L152.917 10.3443C152.568 10.1971 152.062 10.0868 151.4 10.0132C150.738 9.93967 150.085 9.90289 149.441 9.90289C148.338 9.90289 147.474 10.1604 146.848 10.6753C146.223 11.1719 145.91 11.88 145.91 12.7995C145.91 13.5536 146.159 14.1881 146.655 14.703C147.17 15.1996 147.805 15.6502 148.559 16.0548C149.313 16.4594 150.131 16.8548 151.014 17.241C151.897 17.6089 152.715 18.0411 153.469 18.5376C154.223 19.0158 154.849 19.5951 155.345 20.2756C155.86 20.9561 156.118 21.8021 156.118 22.8136C156.118 24.5976 155.428 25.9678 154.049 26.9241C152.669 27.8621 150.784 28.331 148.393 28.331C147.087 28.331 145.956 28.1931 145 27.9172C144.044 27.6414 143.345 27.3471 142.903 27.0345V22.0136H144.669V25.2965ZM168.193 26.4551V28H160.303V26.4551H162.813V10.2339H160.303V8.68906H168.193V10.2339H165.903V17.3238H175.558V10.2339H173.269V8.68906H181.158V10.2339H178.648V26.4551H181.158V28H173.269V26.4551H175.558V18.8687H165.903V26.4551H168.193ZM185.415 18.3445C185.415 16.91 185.636 15.5858 186.078 14.372C186.519 13.1398 187.153 12.0823 187.981 11.1995C188.827 10.2983 189.857 9.59943 191.071 9.10286C192.303 8.6063 193.701 8.35801 195.264 8.35801C196.827 8.35801 198.225 8.6063 199.457 9.10286C200.689 9.59943 201.729 10.2983 202.575 11.1995C203.421 12.0823 204.064 13.1398 204.506 14.372C204.947 15.5858 205.168 16.91 205.168 18.3445C205.168 19.7791 204.947 21.1124 204.506 22.3447C204.064 23.5585 203.421 24.616 202.575 25.5172C201.729 26.4 200.689 27.0896 199.457 27.5862C198.225 28.0828 196.827 28.331 195.264 28.331C193.701 28.331 192.303 28.0828 191.071 27.5862C189.857 27.0896 188.827 26.4 187.981 25.5172C187.153 24.616 186.519 23.5585 186.078 22.3447C185.636 21.1124 185.415 19.7791 185.415 18.3445ZM188.864 18.3445C188.864 19.5216 188.993 20.6251 189.25 21.655C189.526 22.6849 189.94 23.5769 190.491 24.3309C191.043 25.085 191.733 25.6827 192.56 26.1241C193.406 26.5655 194.4 26.7862 195.54 26.7862C196.588 26.7862 197.499 26.5655 198.271 26.1241C199.043 25.6827 199.678 25.085 200.175 24.3309C200.689 23.5769 201.076 22.6849 201.333 21.655C201.591 20.6251 201.719 19.5216 201.719 18.3445C201.719 17.1675 201.581 16.064 201.306 15.0341C201.048 14.0042 200.643 13.1122 200.092 12.3581C199.54 11.6041 198.841 11.0064 197.995 10.565C197.168 10.1236 196.174 9.90289 195.016 9.90289C193.912 9.90289 192.965 10.1236 192.174 10.565C191.402 11.0064 190.767 11.6041 190.271 12.3581C189.774 13.1122 189.416 14.0042 189.195 15.0341C188.974 16.064 188.864 17.1675 188.864 18.3445ZM224.095 8.68906V13.2133H222.329V10.8408L221.777 10.2339H215.019V17.379H219.681L220.095 16.9652V15.8065H221.86V20.5239H220.095V19.3652L219.681 18.9239H215.019V26.4551H222.246L222.798 25.9034V23.1999H224.564V28H209.418V26.4551H211.929V10.2339H209.418V8.68906H224.095ZM231.585 25.2965L232.082 25.9586C232.413 26.1976 232.864 26.4 233.434 26.5655C234.022 26.7126 234.666 26.7862 235.365 26.7862C236.027 26.7862 236.634 26.7218 237.186 26.5931C237.756 26.4459 238.252 26.2344 238.675 25.9586C239.098 25.6827 239.429 25.3333 239.668 24.9102C239.908 24.4872 240.027 23.9815 240.027 23.393C240.027 22.6389 239.77 22.0136 239.255 21.517C238.758 21.0205 238.133 20.5791 237.379 20.1929C236.625 19.8066 235.806 19.4296 234.923 19.0618C234.041 18.694 233.222 18.2618 232.468 17.7652C231.714 17.2686 231.08 16.6709 230.565 15.972C230.068 15.2732 229.82 14.3904 229.82 13.3237C229.82 11.7604 230.408 10.5466 231.585 9.68219C232.781 8.79941 234.39 8.35801 236.413 8.35801C237.682 8.35801 238.776 8.44077 239.696 8.6063C240.616 8.77182 241.397 8.99251 242.041 9.26839V14.0134H240.275V11.034L239.834 10.3443C239.485 10.1971 238.979 10.0868 238.317 10.0132C237.655 9.93967 237.002 9.90289 236.358 9.90289C235.254 9.90289 234.39 10.1604 233.765 10.6753C233.139 11.1719 232.827 11.88 232.827 12.7995C232.827 13.5536 233.075 14.1881 233.572 14.703C234.087 15.1996 234.721 15.6502 235.475 16.0548C236.229 16.4594 237.048 16.8548 237.93 17.241C238.813 17.6089 239.632 18.0411 240.386 18.5376C241.14 19.0158 241.765 19.5951 242.262 20.2756C242.777 20.9561 243.034 21.8021 243.034 22.8136C243.034 24.5976 242.344 25.9678 240.965 26.9241C239.586 27.8621 237.701 28.331 235.31 28.331C234.004 28.331 232.873 28.1931 231.916 27.9172C230.96 27.6414 230.261 27.3471 229.82 27.0345V22.0136H231.585V25.2965Z" fill="white"/>
<line x1="0.999982" y1="35" x2="244" y2="34.9957" stroke="white" stroke-width="2"/>
</svg>
